<?xml version="1.0" encoding="UTF-8"?>
<svg width="490px" height="716px" viewBox="0 0 490 716" version="1.1" xmlns="http://www.w3.org/2000/svg" xmlns:xlink="http://www.w3.org/1999/xlink">
    <!-- Generator: Sketch 61 (89581) - https://sketch.com -->
    <title>heal-text-and-emblem</title>
    <desc>Created with Sketch.</desc>
    <defs>
        <linearGradient x1="6.87914624%" y1="54.2941171%" x2="93.1208538%" y2="45.7058829%" id="linearGradient-1">
            <stop stop-color="#E3646C" offset="29%"></stop>
            <stop stop-color="#E30613" offset="100%"></stop>
        </linearGradient>
        <linearGradient x1="16.7435459%" y1="39.5473709%" x2="89.2865114%" y2="62.3488188%" id="linearGradient-2">
            <stop stop-color="#E3646C" offset="29%"></stop>
            <stop stop-color="#E30613" offset="100%"></stop>
        </linearGradient>
    </defs>
    <g id="heal-text-and-emblem" stroke="none" stroke-width="1" fill="none" fill-rule="evenodd">
        <g>
            <g id="emblem-no-bg">
                <circle id="Oval" cx="245" cy="245" r="245"></circle>
                <g id="emblem" stroke-width="1" fill-rule="evenodd" transform="translate(52.412935, 96.293532)" opacity="0.84">
                    <g id="vertical" style="mix-blend-mode: multiply;" transform="translate(84.774206, 0.000000)" fill="url(#linearGradient-1)" fill-rule="nonzero">
                        <path d="M-83.6331455,116.000469 L149.898412,116.000469 C167.488681,116.000469 181.748412,130.260199 181.748412,147.850469 L181.748412,149.381089 C181.748412,166.971358 167.488681,181.231089 149.898412,181.231089 L-83.6331455,181.231089 C-101.223415,181.231089 -115.483146,166.971358 -115.483146,149.381089 L-115.483146,147.850469 C-115.483146,130.260199 -101.223415,116.000469 -83.6331455,116.000469 Z" id="left" transform="translate(33.132633, 148.615779) rotate(90.000000) translate(-33.132633, -148.615779) "></path>
                        <path d="M64.4622442,116.000469 L297.993802,116.000469 C315.584071,116.000469 329.843802,130.260199 329.843802,147.850469 L329.843802,149.381089 C329.843802,166.971358 315.584071,181.231089 297.993802,181.231089 L64.4622442,181.231089 C46.8719749,181.231089 32.6122442,166.971358 32.6122442,149.381089 L32.6122442,147.850469 C32.6122442,130.260199 46.8719749,116.000469 64.4622442,116.000469 Z" id="right" transform="translate(181.228023, 148.615779) rotate(90.000000) translate(-181.228023, -148.615779) "></path>
                    </g>
                    <rect id="cross" fill="url(#linearGradient-2)" fill-rule="nonzero" style="mix-blend-mode: multiply;" x="0" y="115.79602" width="383.955224" height="64.60199" rx="32.300995"></rect>
                </g>
            </g>
            <g id="heal" transform="translate(49.000000, 551.000000)" fill="#2B2B29">
                <g id="text">
                    <path d="M92.4578605,81.2958537 L92.4578605,135.608171 C92.4578605,143.966707 88.0932093,148.691098 79.7276279,148.691098 C71.3620465,148.691098 66.9973953,143.966707 66.9973953,135.608171 L66.9973953,85.2752439 C66.9973953,72.5557317 58.8136744,64.2153659 46.6290233,64.2153659 C34.4443721,64.2153659 26.2606512,72.5739024 26.2606512,85.2752439 L26.2606512,135.608171 C26.2606512,143.966707 21.896,148.691098 13.5304186,148.691098 C5.16483721,148.691098 0.800186047,143.966707 0.800186047,135.608171 L0.800186047,14.0641463 C0.800186047,5.70560976 5.34669767,0.981219512 13.5304186,0.981219512 C21.7141395,0.981219512 26.2606512,5.70560976 26.2606512,14.0641463 L26.2606512,53.6763415 C32.9894884,46.4080488 42.8099535,42.2287805 54.4490233,42.2287805 C77.3634419,42.2287805 92.4578605,57.8556098 92.4578605,81.2958537 Z" id="Path" fill-rule="nonzero"></path>
                    <path d="M212.667628,86.3836585 L212.667628,92.9069512 C212.667628,99.630122 208.848558,103.445976 202.119721,103.445976 L144.106233,103.445976 L144.106233,105.263049 C144.106233,119.799634 153.017395,129.430122 166.293209,129.430122 C174.370016,129.393841 182.020694,125.804373 187.207163,119.617927 C190.220879,116.515707 194.766765,115.451162 198.846233,116.892317 C207.757395,119.617927 209.75786,126.88622 207.029953,131.428902 C200.482977,142.694756 183.933674,148.872805 166.293209,148.872805 C137.741116,148.872805 118.645767,131.247195 118.645767,104.717927 L118.645767,86.3836585 C118.645767,59.8543902 137.377395,42.2287805 165.565767,42.2287805 C193.75414,42.2287805 212.667628,59.8543902 212.667628,86.3836585 Z M187.207163,85.8203659 C187.207163,71.2837805 178.47786,61.6714634 165.565767,61.6714634 C152.653674,61.6714634 144.106233,71.3019512 144.106233,85.8203659 L144.106233,86.0202439 L187.207163,86.0202439 L187.207163,85.8203659 Z" id="Shape" fill-rule="nonzero"></path>
                    <path d="M324.857349,78.025122 L324.857349,135.608171 C324.857349,143.966707 320.856419,148.691098 313.40014,148.691098 C305.94386,148.691098 301.579209,143.966707 301.033628,135.789878 L301.033628,134.699634 C293.577349,143.603293 281.938279,148.872805 267.589488,148.872805 C247.766698,148.872805 234.490884,137.243537 234.490884,119.43622 L234.490884,113.439878 C234.490884,96.9045122 247.948558,86.0202439 268.298744,86.0202439 L299.396884,86.0202439 L299.396884,79.8240244 C299.396884,68.9215854 291.576884,61.6532927 280.119674,61.6532927 C272.693235,61.6072267 265.632805,64.871341 260.860651,70.5569512 C257.827545,73.6331562 253.263128,74.6307816 249.221581,73.1008537 C240.310419,70.3752439 238.309953,63.2886585 241.03786,58.7459756 C247.402977,47.6618293 263.588558,42.2106098 280.119674,42.2106098 C306.853163,42.2287805 324.857349,56.3292683 324.857349,78.025122 Z M299.396884,108.53378 L299.396884,103.445976 L274.136465,103.445976 C265.770884,103.445976 259.951349,107.806951 259.951349,114.530122 L259.951349,116.528902 C259.951349,123.978902 266.134605,128.703293 275.409488,128.703293 C289.576419,128.703293 299.396884,120.708171 299.396884,108.53378 Z" id="Shape" fill-rule="nonzero"></path>
                    <path d="M354.627907,125.069146 L354.627907,14.0641463 C354.627907,5.70560976 359.174419,0.981219512 367.35814,0.981219512 C375.54186,0.981219512 380.088372,5.70560976 380.088372,14.0641463 L380.088372,121.271463 C379.861729,124.844762 381.795028,128.207301 384.998605,129.811707 C388.14242,131.478587 390.051363,134.798763 389.908837,138.351951 C389.908837,144.893415 383.907442,148.709268 376.269302,148.709268 C363.411767,148.691098 354.627907,139.242317 354.627907,125.069146 Z" id="Path" fill-rule="nonzero"></path>
                </g>
            </g>
        </g>
    </g>
</svg>