<?xml version="1.0" encoding="UTF-8"?>
<svg width="215px" height="82px" viewBox="0 0 215 82" version="1.1" xmlns="http://www.w3.org/2000/svg" xmlns:xlink="http://www.w3.org/1999/xlink">
    <!-- Generator: Sketch 61 (89581) - https://sketch.com -->
    <title>heal</title>
    <desc>Created with Sketch.</desc>
    <g id="heal" stroke="none" stroke-width="1" fill="none" fill-rule="evenodd">
        <g id="text" fill="#2B2B29" fill-rule="nonzero">
            <path d="M50.84,44.74 L50.84,74.63 C50.84,79.23 48.44,81.83 43.84,81.83 C39.24,81.83 36.84,79.23 36.84,74.63 L36.84,46.93 C36.84,39.93 32.34,35.34 25.64,35.34 C18.94,35.34 14.44,39.94 14.44,46.93 L14.44,74.63 C14.44,79.23 12.04,81.83 7.44,81.83 C2.84,81.83 0.44,79.23 0.44,74.63 L0.44,7.74 C0.44,3.14 2.94,0.54 7.44,0.54 C11.94,0.54 14.44,3.14 14.44,7.74 L14.44,29.54 C18.14,25.54 23.54,23.24 29.94,23.24 C42.54,23.24 50.84,31.84 50.84,44.74 Z" id="Path"></path>
            <path d="M116.94,47.54 L116.94,51.13 C116.94,54.83 114.84,56.93 111.14,56.93 L79.24,56.93 L79.24,57.93 C79.24,65.93 84.14,71.23 91.44,71.23 C95.8812106,71.2100331 100.088105,69.2346216 102.94,65.83 C104.597159,64.1227381 107.096815,63.5368813 109.34,64.33 C114.24,65.83 115.34,69.83 113.84,72.33 C110.24,78.53 101.14,81.93 91.44,81.93 C75.74,81.93 65.24,72.23 65.24,57.63 L65.24,47.54 C65.24,32.94 75.54,23.24 91.04,23.24 C106.54,23.24 116.94,32.94 116.94,47.54 Z M102.94,47.23 C102.94,39.23 98.14,33.94 91.04,33.94 C83.94,33.94 79.24,39.24 79.24,47.23 L79.24,47.34 L102.94,47.34 L102.94,47.23 Z" id="Shape"></path>
            <path d="M178.63,42.94 L178.63,74.63 C178.63,79.23 176.43,81.83 172.33,81.83 C168.23,81.83 165.83,79.23 165.53,74.73 L165.53,74.13 C161.43,79.03 155.03,81.93 147.14,81.93 C136.24,81.93 128.94,75.53 128.94,65.73 L128.94,62.43 C128.94,53.33 136.34,47.34 147.53,47.34 L164.63,47.34 L164.63,43.93 C164.63,37.93 160.33,33.93 154.03,33.93 C149.946408,33.9046482 146.064074,35.7010065 143.44,38.83 C141.77218,40.522945 139.262334,41.0719738 137.04,40.23 C132.14,38.73 131.04,34.83 132.54,32.33 C136.04,26.23 144.94,23.23 154.03,23.23 C168.73,23.24 178.63,31 178.63,42.94 Z M164.63,59.73 L164.63,56.93 L150.74,56.93 C146.14,56.93 142.94,59.33 142.94,63.03 L142.94,64.13 C142.94,68.23 146.34,70.83 151.44,70.83 C159.23,70.83 164.63,66.43 164.63,59.73 Z" id="Shape"></path>
            <path d="M195,68.83 L195,7.74 C195,3.14 197.5,0.54 202,0.54 C206.5,0.54 209,3.14 209,7.74 L209,66.74 C208.875375,68.7065136 209.938442,70.557038 211.7,71.44 C213.428696,72.3573431 214.478371,74.1845544 214.4,76.14 C214.4,79.74 211.1,81.84 206.9,81.84 C199.83,81.83 195,76.63 195,68.83 Z" id="Path"></path>
        </g>
    </g>
</svg>